<svg xmlns="http://www.w3.org/2000/svg" width="48" height="48"><circle r="63.5" cy="64" cx="64" fill="#f5f3dc" transform="matrix(.377953 0 0 .377643 -.188976 -.188822)"/><path d="M12.623 38.01l9.9 9.902c7.265.705 14.824-2.952 19.557-8.06 3.697-3.988 5.975-9.128 5.9-15.205L35.717 13.905z" fill="#d8d6c3"/><g transform="matrix(.377953 0 0 .377643 -.188976 -.188822)"><path d="M93 101.5H35c-1.1 0-2-.9-2-2v-71c0-1.1.9-2 2-2h48.892L95 37.32V99.5c0 1.1-.9 2-2 2z" fill="#49bc9c"/><path d="M43.7 60.5h-5.6a1.11 1.11 0 0 1-1.1-1.1v-2.6a1.11 1.11 0 0 1 1.1-1.1h5.6a1.11 1.11 0 0 1 1.1 1.1v2.6a1.11 1.11 0 0 1-1.1 1.1zm46.2 0h-5.6a1.11 1.11 0 0 1-1.1-1.1v-2.6a1.11 1.11 0 0 1 1.1-1.1h5.6a1.11 1.11 0 0 1 1.1 1.1v2.6a1.11 1.11 0 0 1-1.1 1.1zm-11.2 0H49.3a1.11 1.11 0 0 1-1.1-1.1v-2.6a1.11 1.11 0 0 1 1.1-1.1h29.4a1.11 1.11 0 0 1 1.1 1.1v2.6a1.11 1.11 0 0 1-1.1 1.1zm-35 7.2h-5.6a1.11 1.11 0 0 1-1.1-1.099V64a1.11 1.11 0 0 1 1.1-1.1h5.6a1.11 1.11 0 0 1 1.1 1.1v2.6a1.11 1.11 0 0 1-1.1 1.099zm46.2 0h-5.6a1.11 1.11 0 0 1-1.1-1.099V64a1.11 1.11 0 0 1 1.1-1.1h5.6A1.11 1.11 0 0 1 91 64v2.6a1.11 1.11 0 0 1-1.1 1.099zm-11.2 0H49.3a1.11 1.11 0 0 1-1.1-1.099V64a1.11 1.11 0 0 1 1.1-1.1h29.4a1.11 1.11 0 0 1 1.1 1.1v2.6a1.11 1.11 0 0 1-1.1 1.099zm-35 7.2h-5.6a1.11 1.11 0 0 1-1.1-1.1v-2.6a1.11 1.11 0 0 1 1.1-1.099h5.6a1.11 1.11 0 0 1 1.1 1.099v2.6a1.11 1.11 0 0 1-1.1 1.1zm46.2 0h-5.6a1.11 1.11 0 0 1-1.1-1.1v-2.6a1.11 1.11 0 0 1 1.1-1.099h5.6A1.11 1.11 0 0 1 91 71.2v2.6a1.11 1.11 0 0 1-1.1 1.1zm-11.2 0H49.3a1.11 1.11 0 0 1-1.1-1.1v-2.6a1.11 1.11 0 0 1 1.1-1.099h29.4a1.11 1.11 0 0 1 1.1 1.099v2.6a1.11 1.11 0 0 1-1.1 1.1zm-35 7.2h-5.6A1.11 1.11 0 0 1 37 81v-2.6a1.11 1.11 0 0 1 1.1-1.1h5.6a1.11 1.11 0 0 1 1.1 1.1V81a1.11 1.11 0 0 1-1.1 1.099zm46.2 0h-5.6A1.11 1.11 0 0 1 83.2 81v-2.6a1.11 1.11 0 0 1 1.1-1.1h5.6a1.11 1.11 0 0 1 1.1 1.1V81a1.11 1.11 0 0 1-1.1 1.099zm-11.2 0H49.3A1.11 1.11 0 0 1 48.2 81v-2.6a1.11 1.11 0 0 1 1.1-1.1h29.4a1.11 1.11 0 0 1 1.1 1.1V81a1.11 1.11 0 0 1-1.1 1.099zm-35 7.2h-5.6a1.11 1.11 0 0 1-1.1-1.1v-2.6a1.11 1.11 0 0 1 1.1-1.099h5.6a1.11 1.11 0 0 1 1.1 1.099v2.6a1.11 1.11 0 0 1-1.1 1.1zm46.2 0h-5.6a1.11 1.11 0 0 1-1.1-1.1v-2.6a1.11 1.11 0 0 1 1.1-1.099h5.6a1.11 1.11 0 0 1 1.1 1.099v2.6a1.11 1.11 0 0 1-1.1 1.1zm-11.2 0H49.3a1.11 1.11 0 0 1-1.1-1.1v-2.6a1.11 1.11 0 0 1 1.1-1.099h29.4a1.11 1.11 0 0 1 1.1 1.099v2.6a1.11 1.11 0 0 1-1.1 1.1zm-35 7.2h-5.6a1.11 1.11 0 0 1-1.1-1.1v-2.6a1.11 1.11 0 0 1 1.1-1.1h5.6a1.11 1.11 0 0 1 1.1 1.1v2.6a1.11 1.11 0 0 1-1.1 1.1zm46.2 0h-5.6a1.11 1.11 0 0 1-1.1-1.1v-2.6a1.11 1.11 0 0 1 1.1-1.1h5.6a1.11 1.11 0 0 1 1.1 1.1v2.6a1.11 1.11 0 0 1-1.1 1.1zm-11.2 0H49.3a1.11 1.11 0 0 1-1.1-1.1v-2.6a1.11 1.11 0 0 1 1.1-1.1h29.4a1.11 1.11 0 0 1 1.1 1.1v2.6a1.11 1.11 0 0 1-1.1 1.1z" fill="#d4dddd"/><path d="M83.892 26.5v7.922c-.004 1.49.846 2.85 2.783 2.876L95 37.32z" fill="#246251"/><path d="M50.313 39.66c-1.01-.482-2.083-.848-3.145-1.23-.616-.22-1.206-.476-1.727-.834-1.025-.706-.83-1.852.372-2.305.34-.128.696-.17 1.057-.187 1.392-.065 2.715.155 3.974.678.627.26.834.18 1.047-.385l.616-1.8c.138-.403-.032-.668-.473-.84a11.43 11.43 0 0 0-2.508-.646c-1.137-.15-1.137-.155-1.142-1.14-.005-1.4-.005-1.4-1.62-1.4-.234 0-.468-.004-.7 0-.754.02-.882.133-.903.79l-.005.884c-.005.87-.01.857-.978 1.16-2.338.734-3.783 2.11-3.937 4.31-.138 1.95 1.04 3.263 2.896 4.222 1.142.592 2.407.94 3.618 1.403.473.18.924.385 1.318.67 1.164.83.95 2.2-.43 2.732-.74.28-1.52.348-2.322.26-1.238-.133-2.423-.412-3.538-.913-.653-.292-.845-.215-1.068.394l-.53 1.592c-.228.715-.143.884.648 1.22 1.01.422 2.088.636 3.188.787.86.12.887.15.898.922l.01 1.05c.005.44.25.697.776.706l1.8-.005c.49-.01.74-.238.74-.665l.005-1.434c-.027-.486.218-.734.76-.862 1.25-.294 2.31-.87 3.13-1.733 2.274-2.384 1.408-5.873-1.812-7.407z" fill="#2f7a65"/></g></svg>